<?xml version="1.0" encoding="UTF-8"?>
<svg id="Logo" xmlns="http://www.w3.org/2000/svg" viewBox="0 0 437.62 541.83">
  <defs>
    <style>
      .cls-1 {
        fill: #fff;
      }

      .cls-2 {
        fill: #0fa4c5;
      }
    </style>
  </defs>
  <path id="Border" class="cls-1" d="M217.79,0h0C335.78,0,431.58,95.8,431.58,213.79v214.85H3.99v-214.85C3.99,95.8,99.79,0,217.79,0Z"/>
  <path id="Background" class="cls-1" d="M218.2,14.4h.81c110.71,0,200.59,89.88,200.59,200.59v201.46H17.62v-201.46C17.62,104.28,107.5,14.4,218.2,14.4Z"/>
  <g id="Foreground">
    <path class="cls-2" d="M100.17,376.01c5.65-19.19-.17-39.01-14.18-49.19l204.34-128.15c-6.2-11.18-33.47-63.44-11.43-78.62,24.72-17.03,69.75,32.42,69.75,32.42,0,0,7.8-52.43,31.43-56.36-5.99-8.1-12.56-15.74-19.66-22.84-36.36-36.36-86.58-58.84-142.07-58.84C107.41,14.42,17.46,104.36,17.46,215.32v200.9h401.8v-40.21H100.17ZM87.5,376.01h-37.3c-12.3,0-16.95-16.12-6.52-22.65l30.86-19.36c14.04,6.17,19.67,24.75,12.95,42.02Z"/>
    <path class="cls-2" d="M326.69,265.33c0,12.28-9.96,22.24-22.24,22.24s-22.24-9.96-22.24-22.24,9.95-22.24,22.24-22.24,22.24,9.96,22.24,22.24Z"/>
  </g>
</svg>