<?xml version="1.0" encoding="UTF-8"?>
<svg id="Logo" xmlns="http://www.w3.org/2000/svg" viewBox="0 0 470.3 467.23">
  <defs>
    <style>
      .cls-1 {
        fill: #064355;
      }

      .cls-2 {
        fill: #fff;
      }

      .cls-3 {
        fill: #0fa4c5;
      }
    </style>
  </defs>
  <path id="Border" class="cls-2" d="M454.06,454.61H17.16v-221.56C17.16,110.69,115.1,11.49,235.93,11.49c57.96,0,110.66,22.83,149.81,60.11,1.66,1.56,3.28,3.16,4.89,4.79,39.59,40.1,64.08,95.49,64.08,156.67l-.64,221.56Z"/>
  <path id="Hole" class="cls-1" d="M439.98,437.7H31.28v-204.65C31.28,120.03,122.9,28.4,235.93,28.4c54.22,0,103.52,21.09,140.14,55.52,1.55,1.44,3.07,2.92,4.57,4.42,37.03,37.04,59.94,88.2,59.94,144.71l-.6,204.65Z"/>
  <path id="Rat" class="cls-3" d="M380.64,88.34c-1.27-1.27-2.55-2.53-3.86-3.75-.01,0-.01-.01-.02-.01-.54-.39-1.22-.56-1.87-.39-30.8,7.68-43.95,67.25-47.06,84.02-.33,1.81-2.56,2.48-3.84,1.17-14.12-14.44-73.41-71.41-107.88-47.88-33.96,23.19,5.74,101.3,17.19,122.15.57,1.03.25,2.31-.73,2.96L32.3,379.55h-.01c-.63.41-1.01,1.12-1.01,1.88v56.27h408.7l.6-204.65c0-56.51-22.91-107.67-59.94-144.71ZM271.42,389.99c-21.93,0-39.71-17.33-39.71-38.71s17.78-38.72,39.71-38.72,39.71,17.33,39.71,38.72-17.78,38.71-39.71,38.71Z"/>
</svg>