<?xml version="1.0" encoding="UTF-8"?>
<svg id="Logo" xmlns="http://www.w3.org/2000/svg" viewBox="0 0 437.62 527.42">
  <defs>
    <style>
      .cls-1 {
        fill: #fff;
      }

      .cls-2 {
        fill: #eec539;
      }
    </style>
  </defs>
  <path id="Background" class="cls-1" d="M218.2,0h.81C329.72,0,419.6,89.88,419.6,200.59v201.46H17.62v-201.46C17.62,89.88,107.5,0,218.2,0Z"/>
  <g id="Foreground">
    <path class="cls-2" d="M100.17,361.61c5.65-19.19-.17-39.01-14.18-49.19l204.34-128.15c-6.2-11.18-33.47-63.44-11.43-78.62,24.72-17.03,69.75,32.42,69.75,32.42,0,0,7.8-52.43,31.43-56.36-5.99-8.1-12.56-15.74-19.66-22.84C324.07,22.5,273.84.02,218.36.02,107.41.02,17.46,89.96,17.46,200.92v200.9h401.8v-40.21H100.17ZM87.5,361.61h-37.3c-12.3,0-16.95-16.12-6.52-22.65l30.86-19.36c14.04,6.17,19.67,24.75,12.95,42.02Z"/>
    <path class="cls-2" d="M326.69,250.92c0,12.28-9.96,22.24-22.24,22.24s-22.24-9.96-22.24-22.24,9.95-22.24,22.24-22.24,22.24,9.96,22.24,22.24Z"/>
  </g>
</svg>